#!OML:ASF G:\JayActor3\Patient Classification 1\Patient 1\Session 6\male.ASF
:FULLY-SPECIFIED
:DEGREES
2857
root 7.8393 15.3469 -21.0897 193.32 -65.8451 -182.286
lowerback 34.1702 -0.0152798 3.44628
upperback 14.9342 -1.51349 -1.60336
thorax -1.06478 -1.45059 -3.00907
lowerneck -2.28175 3.36149 3.55424
upperneck -34.5596 1.87456 -3.48665
head -10.6408 -0.365428 -1.83384
rclavicle 4.42296e-014 5.86415e-015
rhumerus 21.6648 31.4643 -24.1771
rradius 120.933
rwrist -53.5799
rhand -42.4215 -11.4911
rfingers 7.12502
rthumb -15.3012 -40.905
lclavicle 4.42296e-014 5.86415e-015
lhumerus -11.166 -12.9164 67.6007
lradius 64.1217
lwrist 28.2512
lhand -16.7291 10.6371
lfingers 7.12502
lthumb 9.49675 40.4031
rfemur -49.3256 -10.2132 25.9511
rtibia 62.1525
rfoot -27.963 -20.1198
rtoes -1.45787
lfemur -48.5167 10.6273 -22.9885
ltibia 51.7269
lfoot -13.2483 -0.254247
ltoes 2.99262
2858
root 7.83973 15.3457 -21.0896 193.355 -65.8639 -182.349
lowerback 34.1318 -0.0232823 3.454
upperback 14.9179 -1.516 -1.60495
thorax -1.06932 -1.44957 -3.01449
lowerneck -2.27663 3.36699 3.56506
upperneck -34.5932 1.87692 -3.49354
head -10.6547 -0.367211 -1.83871
rclavicle 8.34896e-014 7.38485e-014
rhumerus 21.565 31.471 -24.1626
rradius 120.966
rwrist -53.7447
rhand -42.3884 -11.4694
rfingers 7.12502
rthumb -15.2693 -40.8858
lclavicle 8.34896e-014 7.38485e-014
lhumerus -11.1418 -12.954 67.5277
lradius 64.1695
lwrist 28.2252
lhand -16.7413 10.5932
lfingers 7.12502
lthumb 9.48499 40.3598
rfemur -49.3159 -10.1787 25.9126
rtibia 62.1829
rfoot -27.9864 -20.1959
rtoes -1.50418
lfemur -48.5035 10.6691 -23.0318
ltibia 51.7286
lfoot -13.2395 -0.311844
ltoes 3.02524
2859
root 7.83988 15.3444 -21.0892 193.385 -65.8828 -182.404
lowerback 34.0901 -0.0290234 3.46214
upperback 14.8989 -1.51479 -1.60454
thorax -1.07544 -1.4466 -3.01921
lowerneck -2.27229 3.37043 3.57551
upperneck -34.626 1.87698 -3.49754
head -10.6684 -0.3703 -1.84227
rclavicle -7.10655e-014 2.59911e-014
rhumerus 21.454 31.4733 -24.1527
rradius 121.003
rwrist -53.8922
rhand -42.3709 -11.4321
rfingers 7.12502
rthumb -15.2524 -40.8498
lclavicle -7.10655e-014 2.59911e-014
lhumerus -11.1186 -12.9875 67.4523
lradius 64.2145
lwrist 28.21
lhand -16.7545 10.5721
lfingers 7.12502
lthumb 9.47224 40.3392
rfemur -49.3093 -10.1533 25.8788
rtibia 62.2141
rfoot -28.0066 -20.2629
rtoes -1.55906
lfemur -48.4944 10.7078 -23.0723
ltibia 51.7343
lfoot -13.2354 -0.364735
ltoes 3.05335
2860
root 7.83977 15.3429 -21.0886 193.404 -65.9019 -182.447
lowerback 34.0467 -0.0330826 3.47224
upperback 14.8783 -1.51047 -1.60193
thorax -1.08222 -1.44201 -3.02361
lowerneck -2.27366 3.37263 3.58488
upperneck -34.6545 1.87581 -3.49861
head -10.6794 -0.374041 -1.84434
rclavicle -3.78685e-014 2.99171e-014
rhumerus 21.3537 31.4492 -24.1282
rradius 121.039
rwrist -54.0381
rhand -42.3711 -11.4051
rfingers 7.12502
rthumb -15.2526 -40.8228
lclavicle -3.78685e-014 2.99171e-014
lhumerus -11.0932 -13.0143 67.3742
lradius 64.2568
lwrist 28.2156
lhand -16.7599 10.5866
lfingers 7.12502
lthumb 9.467 40.354
rfemur -49.3029 -10.1353 25.8502
rtibia 62.2461
rfoot -28.0274 -20.3181
rtoes -1.6055
lfemur -48.4867 10.7416 -23.1069
ltibia 51.7442
lfoot -13.2373 -0.4118
ltoes 3.07866
2861
root 7.83941 15.3413 -21.0876 193.416 -65.9197 -182.484
lowerback 34.0035 -0.0342991 3.47772
upperback 14.8571 -1.50377 -1.59573
thorax -1.0895 -1.43668 -3.02254
lowerneck -2.275 3.37424 3.58185
upperneck -34.6828 1.87518 -3.49155
head -10.6907 -0.376783 -1.8413
rclavicle 1.61016e-014 1.95803e-014
rhumerus 21.2459 31.4325 -24.1148
rradius 121.076
rwrist -54.1284
rhand -42.3785 -11.3776
rfingers 7.12502
rthumb -15.2597 -40.7947
lclavicle 1.61016e-014 1.95803e-014
lhumerus -11.0665 -13.0297 67.2971
lradius 64.2922
lwrist 28.2423
lhand -16.783 10.6152
lfingers 7.12502
lthumb 9.44477 40.3836
rfemur -49.2942 -10.1237 25.8233
rtibia 62.2777
rfoot -28.045 -20.3672
rtoes -1.65683
lfemur -48.4765 10.7698 -23.1378
ltibia 51.7569
lfoot -13.2441 -0.450717
ltoes 3.10181
